<?xml version="1.0" standalone="no"?>
<svg xmlns:xlink="http://www.w3.org/1999/xlink" xmlns="http://www.w3.org/2000/svg" version="1.1" class="overlap-area-chart" width="498" height="398" style="background-color: transparent; font-size: 13px; font-family: noto; user-select: none;"><defs><clipPath id="p9kd3r1dn794im9"><rect x="-20" y="0" width="538" height="398"/></clipPath><clipPath id="p3fqt91dn794im9"><rect class="xp3fqt91dn794im9"/></clipPath></defs><g class="svg-group" transform="translate(24,20)"><g class="main-group" transform="translate(0,0)"><g class="core-group" transform="translate(23.7470703125,0)" clip-path=""><g class="plane-grid"><g style="fill: none; stroke: rgb(204, 204, 204); stroke-dasharray: 3, 3; pointer-events: none;"><line class="grid-x-line" x1="0" y1="207.49223086356008" x2="426.7529296875" y2="207.49223086356008"/><line class="grid-x-line" x1="0" y1="157.85380619603967" x2="426.7529296875" y2="157.85380619603967"/><line class="grid-x-line" x1="0" y1="108.21538152851929" x2="426.7529296875" y2="108.21538152851929"/><line class="grid-x-line" x1="0" y1="58.57695686099888" x2="426.7529296875" y2="58.57695686099888"/><line class="grid-x-line" x1="0" y1="8.938532193478494" x2="426.7529296875" y2="8.938532193478494"/></g></g><g class="overlap-area-plot"><g><g class="overlap-area"><g><g><path class="overlap" style="fill: rgb(65, 80, 216); fill-opacity: 0.7;" d="M0,122.6069089287754C0,122.6069089287754,18.966796875,178.86379021863183,28.4501953125,192.10070346330394C37.93359375,205.33761670797605,47.4169921875,199.54646716343203,56.900390625,202.02838839680805C66.3837890625,204.51030963018408,75.8671875,203.68300255239205,85.3505859375,206.99223086356008C94.833984375,210.3014591747281,104.3173828125,219.4018370304402,113.80078125,221.88375826381622C123.2841796875,224.36567949719225,132.767578125,217.7472228748562,142.2509765625,221.88375826381622C151.734375,226.02029365277625,161.2177734375,241.73912813082438,170.701171875,246.7029705975764C180.1845703125,251.66681306432844,189.66796875,250.83950598653647,199.1513671875,251.66681306432847C208.634765625,252.49412014212047,218.1181640625,251.66681306432847,227.6015625,251.66681306432847C237.0849609375,251.66681306432847,246.568359375,250.83950598653647,256.0517578125,251.66681306432847C265.53515625,252.49412014212047,275.0185546875,255.8033484532885,284.501953125,256.6306555310805C293.9853515625,257.4579626088725,303.46875,256.6306555310805,312.9521484375,256.6306555310805C322.435546875,256.6306555310805,331.9189453125,256.6306555310805,341.40234375,256.6306555310805C350.8857421875,256.6306555310805,360.369140625,256.6306555310805,369.8525390625,256.6306555310805C379.3359375,256.6306555310805,388.8193359375,256.6306555310805,398.302734375,256.6306555310805C407.7861328125,256.6306555310805,426.7529296875,256.6306555310805,426.7529296875,256.6306555310805L426.7529296875,256.6306555310805C426.7529296875,256.6306555310805,407.7861328125,256.6306555310805,398.302734375,256.6306555310805C388.8193359375,256.6306555310805,379.3359375,256.6306555310805,369.8525390625,256.6306555310805C360.369140625,256.6306555310805,350.8857421875,256.6306555310805,341.40234375,256.6306555310805C331.9189453125,256.6306555310805,322.435546875,256.6306555310805,312.9521484375,256.6306555310805C303.46875,256.6306555310805,293.9853515625,256.6306555310805,284.501953125,256.6306555310805C275.0185546875,256.6306555310805,265.53515625,256.6306555310805,256.0517578125,256.6306555310805C246.568359375,256.6306555310805,237.0849609375,256.6306555310805,227.6015625,256.6306555310805C218.1181640625,256.6306555310805,208.634765625,256.6306555310805,199.1513671875,256.6306555310805C189.66796875,256.6306555310805,180.1845703125,256.6306555310805,170.701171875,256.6306555310805C161.2177734375,256.6306555310805,151.734375,256.6306555310805,142.2509765625,256.6306555310805C132.767578125,256.6306555310805,123.2841796875,256.6306555310805,113.80078125,256.6306555310805C104.3173828125,256.6306555310805,94.833984375,256.6306555310805,85.3505859375,256.6306555310805C75.8671875,256.6306555310805,66.3837890625,256.6306555310805,56.900390625,256.6306555310805C47.4169921875,256.6306555310805,37.93359375,256.6306555310805,28.4501953125,256.6306555310805C18.966796875,256.6306555310805,0,256.6306555310805,0,256.6306555310805Z"/></g><g><path class="overlap-line" style="fill: none; stroke: rgb(65, 80, 216); stroke-width: 2; stroke-opacity: 1;" d="M0,122.6069089287754C0,122.6069089287754,18.966796875,178.86379021863183,28.4501953125,192.10070346330394C37.93359375,205.33761670797605,47.4169921875,199.54646716343203,56.900390625,202.02838839680805C66.3837890625,204.51030963018408,75.8671875,203.68300255239205,85.3505859375,206.99223086356008C94.833984375,210.3014591747281,104.3173828125,219.4018370304402,113.80078125,221.88375826381622C123.2841796875,224.36567949719225,132.767578125,217.7472228748562,142.2509765625,221.88375826381622C151.734375,226.02029365277625,161.2177734375,241.73912813082438,170.701171875,246.7029705975764C180.1845703125,251.66681306432844,189.66796875,250.83950598653647,199.1513671875,251.66681306432847C208.634765625,252.49412014212047,218.1181640625,251.66681306432847,227.6015625,251.66681306432847C237.0849609375,251.66681306432847,246.568359375,250.83950598653647,256.0517578125,251.66681306432847C265.53515625,252.49412014212047,275.0185546875,255.8033484532885,284.501953125,256.6306555310805C293.9853515625,257.4579626088725,303.46875,256.6306555310805,312.9521484375,256.6306555310805C322.435546875,256.6306555310805,331.9189453125,256.6306555310805,341.40234375,256.6306555310805C350.8857421875,256.6306555310805,360.369140625,256.6306555310805,369.8525390625,256.6306555310805C379.3359375,256.6306555310805,388.8193359375,256.6306555310805,398.302734375,256.6306555310805C407.7861328125,256.6306555310805,426.7529296875,256.6306555310805,426.7529296875,256.6306555310805"/></g></g><g><g><path class="overlap" style="fill: rgb(40, 191, 126); fill-opacity: 0.7;" d="M0,241.73912813082438C0,241.73912813082438,18.966796875,246.7029705975764,28.4501953125,246.7029705975764C37.93359375,246.7029705975764,47.4169921875,244.2210493642004,56.900390625,241.73912813082438C66.3837890625,239.25720689744836,75.8671875,235.94797858628033,85.3505859375,231.8114431973203C94.833984375,227.67490780836027,104.3173828125,212.78338040810414,113.80078125,216.91991579706416C123.2841796875,221.0564511860242,132.767578125,250.83950598653644,142.2509765625,256.6306555310805C151.734375,262.42180507562455,161.2177734375,290.55024572055277,170.701171875,251.66681306432847C180.1845703125,212.78338040810416,189.66796875,22.5027525159426,199.1513671875,23.330059593734603C208.634765625,24.157366671526606,218.1181640625,217.74722287485616,227.6015625,256.6306555310805C237.0849609375,295.5140881873048,246.568359375,258.2852696866645,256.0517578125,256.6306555310805C265.53515625,254.9760413754965,275.0185546875,251.66681306432844,284.501953125,246.7029705975764C293.9853515625,241.73912813082438,303.46875,226.84760073056825,312.9521484375,226.84760073056825C322.435546875,226.84760073056825,331.9189453125,241.73912813082438,341.40234375,246.7029705975764C350.8857421875,251.66681306432844,360.369140625,254.9760413754965,369.8525390625,256.6306555310805C379.3359375,258.2852696866645,388.8193359375,256.6306555310805,398.302734375,256.6306555310805C407.7861328125,256.6306555310805,426.7529296875,256.6306555310805,426.7529296875,256.6306555310805L426.7529296875,256.6306555310805C426.7529296875,256.6306555310805,407.7861328125,256.6306555310805,398.302734375,256.6306555310805C388.8193359375,256.6306555310805,379.3359375,256.6306555310805,369.8525390625,256.6306555310805C360.369140625,256.6306555310805,350.8857421875,256.6306555310805,341.40234375,256.6306555310805C331.9189453125,256.6306555310805,322.435546875,256.6306555310805,312.9521484375,256.6306555310805C303.46875,256.6306555310805,293.9853515625,256.6306555310805,284.501953125,256.6306555310805C275.0185546875,256.6306555310805,265.53515625,256.6306555310805,256.0517578125,256.6306555310805C246.568359375,256.6306555310805,237.0849609375,256.6306555310805,227.6015625,256.6306555310805C218.1181640625,256.6306555310805,208.634765625,256.6306555310805,199.1513671875,256.6306555310805C189.66796875,256.6306555310805,180.1845703125,256.6306555310805,170.701171875,256.6306555310805C161.2177734375,256.6306555310805,151.734375,256.6306555310805,142.2509765625,256.6306555310805C132.767578125,256.6306555310805,123.2841796875,256.6306555310805,113.80078125,256.6306555310805C104.3173828125,256.6306555310805,94.833984375,256.6306555310805,85.3505859375,256.6306555310805C75.8671875,256.6306555310805,66.3837890625,256.6306555310805,56.900390625,256.6306555310805C47.4169921875,256.6306555310805,37.93359375,256.6306555310805,28.4501953125,256.6306555310805C18.966796875,256.6306555310805,0,256.6306555310805,0,256.6306555310805Z"/></g><g><path class="overlap-line" style="fill: none; stroke: rgb(40, 191, 126); stroke-width: 2; stroke-opacity: 1;" d="M0,241.73912813082438C0,241.73912813082438,18.966796875,246.7029705975764,28.4501953125,246.7029705975764C37.93359375,246.7029705975764,47.4169921875,244.2210493642004,56.900390625,241.73912813082438C66.3837890625,239.25720689744836,75.8671875,235.94797858628033,85.3505859375,231.8114431973203C94.833984375,227.67490780836027,104.3173828125,212.78338040810414,113.80078125,216.91991579706416C123.2841796875,221.0564511860242,132.767578125,250.83950598653644,142.2509765625,256.6306555310805C151.734375,262.42180507562455,161.2177734375,290.55024572055277,170.701171875,251.66681306432847C180.1845703125,212.78338040810416,189.66796875,22.5027525159426,199.1513671875,23.330059593734603C208.634765625,24.157366671526606,218.1181640625,217.74722287485616,227.6015625,256.6306555310805C237.0849609375,295.5140881873048,246.568359375,258.2852696866645,256.0517578125,256.6306555310805C265.53515625,254.9760413754965,275.0185546875,251.66681306432844,284.501953125,246.7029705975764C293.9853515625,241.73912813082438,303.46875,226.84760073056825,312.9521484375,226.84760073056825C322.435546875,226.84760073056825,331.9189453125,241.73912813082438,341.40234375,246.7029705975764C350.8857421875,251.66681306432844,360.369140625,254.9760413754965,369.8525390625,256.6306555310805C379.3359375,258.2852696866645,388.8193359375,256.6306555310805,398.302734375,256.6306555310805C407.7861328125,256.6306555310805,426.7529296875,256.6306555310805,426.7529296875,256.6306555310805"/></g></g><g><g><path class="overlap" style="fill: rgb(237, 124, 47); fill-opacity: 0.7;" d="M0,157.35380619603967C0,157.35380619603967,18.966796875,221.88375826381622,28.4501953125,236.77528566407233C37.93359375,251.66681306432844,47.4169921875,245.04835644199238,56.900390625,246.7029705975764C66.3837890625,248.35758475316044,75.8671875,247.5302776753684,85.3505859375,246.7029705975764C94.833984375,245.8756635197844,104.3173828125,240.08451397524038,113.80078125,241.73912813082438C123.2841796875,243.39374228640838,132.767578125,254.14873429770446,142.2509765625,256.6306555310805C151.734375,259.1125767644565,161.2177734375,265.73103338679255,170.701171875,256.6306555310805C180.1845703125,247.5302776753684,189.66796875,202.02838839680805,199.1513671875,202.02838839680805C208.634765625,202.02838839680805,218.1181640625,247.5302776753684,227.6015625,256.6306555310805C237.0849609375,265.73103338679255,246.568359375,256.6306555310805,256.0517578125,256.6306555310805C265.53515625,256.6306555310805,275.0185546875,265.73103338679255,284.501953125,256.6306555310805C293.9853515625,247.5302776753684,303.46875,203.68300255239205,312.9521484375,202.02838839680805C322.435546875,200.37377424122406,331.9189453125,240.08451397524036,341.40234375,246.7029705975764C350.8857421875,253.32142721991247,360.369140625,240.91182105303238,369.8525390625,241.73912813082438C379.3359375,242.56643520861638,388.8193359375,266.5583404645846,398.302734375,251.66681306432847C407.7861328125,236.77528566407236,426.7529296875,152.38996372928767,426.7529296875,152.38996372928767L426.7529296875,256.6306555310805C426.7529296875,256.6306555310805,407.7861328125,256.6306555310805,398.302734375,256.6306555310805C388.8193359375,256.6306555310805,379.3359375,256.6306555310805,369.8525390625,256.6306555310805C360.369140625,256.6306555310805,350.8857421875,256.6306555310805,341.40234375,256.6306555310805C331.9189453125,256.6306555310805,322.435546875,256.6306555310805,312.9521484375,256.6306555310805C303.46875,256.6306555310805,293.9853515625,256.6306555310805,284.501953125,256.6306555310805C275.0185546875,256.6306555310805,265.53515625,256.6306555310805,256.0517578125,256.6306555310805C246.568359375,256.6306555310805,237.0849609375,256.6306555310805,227.6015625,256.6306555310805C218.1181640625,256.6306555310805,208.634765625,256.6306555310805,199.1513671875,256.6306555310805C189.66796875,256.6306555310805,180.1845703125,256.6306555310805,170.701171875,256.6306555310805C161.2177734375,256.6306555310805,151.734375,256.6306555310805,142.2509765625,256.6306555310805C132.767578125,256.6306555310805,123.2841796875,256.6306555310805,113.80078125,256.6306555310805C104.3173828125,256.6306555310805,94.833984375,256.6306555310805,85.3505859375,256.6306555310805C75.8671875,256.6306555310805,66.3837890625,256.6306555310805,56.900390625,256.6306555310805C47.4169921875,256.6306555310805,37.93359375,256.6306555310805,28.4501953125,256.6306555310805C18.966796875,256.6306555310805,0,256.6306555310805,0,256.6306555310805Z"/></g><g><path class="overlap-line" style="fill: none; stroke: rgb(237, 124, 47); stroke-width: 2; stroke-opacity: 1;" d="M0,157.35380619603967C0,157.35380619603967,18.966796875,221.88375826381622,28.4501953125,236.77528566407233C37.93359375,251.66681306432844,47.4169921875,245.04835644199238,56.900390625,246.7029705975764C66.3837890625,248.35758475316044,75.8671875,247.5302776753684,85.3505859375,246.7029705975764C94.833984375,245.8756635197844,104.3173828125,240.08451397524038,113.80078125,241.73912813082438C123.2841796875,243.39374228640838,132.767578125,254.14873429770446,142.2509765625,256.6306555310805C151.734375,259.1125767644565,161.2177734375,265.73103338679255,170.701171875,256.6306555310805C180.1845703125,247.5302776753684,189.66796875,202.02838839680805,199.1513671875,202.02838839680805C208.634765625,202.02838839680805,218.1181640625,247.5302776753684,227.6015625,256.6306555310805C237.0849609375,265.73103338679255,246.568359375,256.6306555310805,256.0517578125,256.6306555310805C265.53515625,256.6306555310805,275.0185546875,265.73103338679255,284.501953125,256.6306555310805C293.9853515625,247.5302776753684,303.46875,203.68300255239205,312.9521484375,202.02838839680805C322.435546875,200.37377424122406,331.9189453125,240.08451397524036,341.40234375,246.7029705975764C350.8857421875,253.32142721991247,360.369140625,240.91182105303238,369.8525390625,241.73912813082438C379.3359375,242.56643520861638,388.8193359375,266.5583404645846,398.302734375,251.66681306432847C407.7861328125,236.77528566407236,426.7529296875,152.38996372928767,426.7529296875,152.38996372928767"/></g></g></g></g></g><g class="bands-overlay" style="opacity: 0;"><rect x="-14.22509765625" y="0" width="28.4501953125" height="256.6306555310805" style="fill: rgb(0, 0, 0);"/><rect x="14.22509765625" y="0" width="28.4501953125" height="256.6306555310805" style="fill: rgb(0, 0, 0);"/><rect x="42.67529296875" y="0" width="28.4501953125" height="256.6306555310805" style="fill: rgb(0, 0, 0);"/><rect x="71.12548828125" y="0" width="28.4501953125" height="256.6306555310805" style="fill: rgb(0, 0, 0);"/><rect x="99.57568359375" y="0" width="28.4501953125" height="256.6306555310805" style="fill: rgb(0, 0, 0);"/><rect x="128.02587890625" y="0" width="28.4501953125" height="256.6306555310805" style="fill: rgb(0, 0, 0);"/><rect x="156.47607421875" y="0" width="28.4501953125" height="256.6306555310805" style="fill: rgb(0, 0, 0);"/><rect x="184.92626953125" y="0" width="28.4501953125" height="256.6306555310805" style="fill: rgb(0, 0, 0);"/><rect x="213.37646484375" y="0" width="28.4501953125" height="256.6306555310805" style="fill: rgb(0, 0, 0);"/><rect x="241.82666015625" y="0" width="28.4501953125" height="256.6306555310805" style="fill: rgb(0, 0, 0);"/><rect x="270.27685546875" y="0" width="28.4501953125" height="256.6306555310805" style="fill: rgb(0, 0, 0);"/><rect x="298.72705078125" y="0" width="28.4501953125" height="256.6306555310805" style="fill: rgb(0, 0, 0);"/><rect x="327.17724609375" y="0" width="28.4501953125" height="256.6306555310805" style="fill: rgb(0, 0, 0);"/><rect x="355.62744140625" y="0" width="28.4501953125" height="256.6306555310805" style="fill: rgb(0, 0, 0);"/><rect x="384.07763671875" y="0" width="28.4501953125" height="256.6306555310805" style="fill: rgb(0, 0, 0);"/><rect x="412.52783203125" y="0" width="28.4501953125" height="256.6306555310805" style="fill: rgb(0, 0, 0);"/></g><line class="guide-line" x1="426.7529296875" y1="0" x2="426.7529296875" y2="256.6306555310805" style="stroke: rgb(198, 198, 198); stroke-dasharray: 0, 0; pointer-events: none; display: none;"/><g class="scatter-plot" style="pointer-events: none; display: none;"><g><g><circle class="scatter-plot" cx="426.7529296875" cy="256.6306555310805" r="3.5" style="fill: rgb(65, 80, 216); stroke: rgb(255, 255, 255); stroke-width: 2; opacity: 1;"/></g><g><circle class="scatter-plot" cx="426.7529296875" cy="256.6306555310805" r="3.5" style="fill: rgb(40, 191, 126); stroke: rgb(255, 255, 255); stroke-width: 2; opacity: 1;"/></g><g><circle class="scatter-plot" cx="426.7529296875" cy="152.38996372928767" r="3.5" style="fill: rgb(237, 124, 47); stroke: rgb(255, 255, 255); stroke-width: 2; opacity: 1;"/></g></g></g><g class="stack-texts"><g><g class="ranking-text-group"><text x="0" y="122.6069089287754" text-anchor="middle" dy="-4.800000000000001" style="fill: rgb(49, 49, 49); font-size: 12px; font-family: noto; display: none; opacity: 0;">27</text><text x="28.4501953125" y="192.10070346330394" text-anchor="middle" dy="-4.800000000000001" style="fill: rgb(49, 49, 49); font-size: 12px; font-family: noto; display: none; opacity: 0;">13</text><text x="56.900390625" y="202.02838839680805" text-anchor="middle" dy="-4.800000000000001" style="fill: rgb(49, 49, 49); font-size: 12px; font-family: noto; display: none; opacity: 0;">11</text><text x="85.3505859375" y="206.99223086356008" text-anchor="middle" dy="-4.800000000000001" style="fill: rgb(49, 49, 49); font-size: 12px; font-family: noto; display: none; opacity: 0;">10</text><text x="113.80078125" y="221.88375826381622" text-anchor="middle" dy="-4.800000000000001" style="fill: rgb(49, 49, 49); font-size: 12px; font-family: noto; display: none; opacity: 0;">7</text><text x="142.2509765625" y="221.88375826381622" text-anchor="middle" dy="-4.800000000000001" style="fill: rgb(49, 49, 49); font-size: 12px; font-family: noto; display: none; opacity: 0;">7</text><text x="170.701171875" y="246.7029705975764" text-anchor="middle" dy="-4.800000000000001" style="fill: rgb(49, 49, 49); font-size: 12px; font-family: noto; display: none; opacity: 0;">2</text><text x="199.1513671875" y="251.66681306432847" text-anchor="middle" dy="-4.800000000000001" style="fill: rgb(49, 49, 49); font-size: 12px; font-family: noto; display: none; opacity: 0;">1</text><text x="227.6015625" y="251.66681306432847" text-anchor="middle" dy="-4.800000000000001" style="fill: rgb(49, 49, 49); font-size: 12px; font-family: noto; display: none; opacity: 0;">1</text><text x="256.0517578125" y="251.66681306432847" text-anchor="middle" dy="-4.800000000000001" style="fill: rgb(49, 49, 49); font-size: 12px; font-family: noto; display: none; opacity: 0;">1</text><text x="284.501953125" y="256.6306555310805" text-anchor="middle" dy="-4.800000000000001" style="fill: rgb(49, 49, 49); font-size: 12px; font-family: noto; display: none; opacity: 0;">0</text><text x="312.9521484375" y="256.6306555310805" text-anchor="middle" dy="-4.800000000000001" style="fill: rgb(49, 49, 49); font-size: 12px; font-family: noto; display: none; opacity: 0;">0</text><text x="341.40234375" y="256.6306555310805" text-anchor="middle" dy="-4.800000000000001" style="fill: rgb(49, 49, 49); font-size: 12px; font-family: noto; display: none; opacity: 0;">0</text><text x="369.8525390625" y="256.6306555310805" text-anchor="middle" dy="-4.800000000000001" style="fill: rgb(49, 49, 49); font-size: 12px; font-family: noto; display: none; opacity: 0;">0</text><text x="398.302734375" y="256.6306555310805" text-anchor="middle" dy="-4.800000000000001" style="fill: rgb(49, 49, 49); font-size: 12px; font-family: noto; display: none; opacity: 0;">0</text><text x="426.7529296875" y="256.6306555310805" text-anchor="middle" dy="-4.800000000000001" style="fill: rgb(49, 49, 49); font-size: 12px; font-family: noto; display: none; opacity: 0;">0</text></g><g class="ranking-text-group"><text x="0" y="241.73912813082438" text-anchor="middle" dy="-4.800000000000001" style="fill: rgb(49, 49, 49); font-size: 12px; font-family: noto; display: none; opacity: 0;">3</text><text x="28.4501953125" y="246.7029705975764" text-anchor="middle" dy="-4.800000000000001" style="fill: rgb(49, 49, 49); font-size: 12px; font-family: noto; display: none; opacity: 0;">2</text><text x="56.900390625" y="241.73912813082438" text-anchor="middle" dy="-4.800000000000001" style="fill: rgb(49, 49, 49); font-size: 12px; font-family: noto; display: none; opacity: 0;">3</text><text x="85.3505859375" y="231.8114431973203" text-anchor="middle" dy="-4.800000000000001" style="fill: rgb(49, 49, 49); font-size: 12px; font-family: noto; display: none; opacity: 0;">5</text><text x="113.80078125" y="216.91991579706416" text-anchor="middle" dy="-4.800000000000001" style="fill: rgb(49, 49, 49); font-size: 12px; font-family: noto; display: none; opacity: 0;">8</text><text x="142.2509765625" y="256.6306555310805" text-anchor="middle" dy="-4.800000000000001" style="fill: rgb(49, 49, 49); font-size: 12px; font-family: noto; display: none; opacity: 0;">0</text><text x="170.701171875" y="251.66681306432847" text-anchor="middle" dy="-4.800000000000001" style="fill: rgb(49, 49, 49); font-size: 12px; font-family: noto; display: none; opacity: 0;">1</text><text x="199.1513671875" y="23.330059593734603" text-anchor="middle" dy="-4.800000000000001" style="fill: rgb(49, 49, 49); font-size: 12px; font-family: noto; display: none; opacity: 0;">47</text><text x="227.6015625" y="256.6306555310805" text-anchor="middle" dy="-4.800000000000001" style="fill: rgb(49, 49, 49); font-size: 12px; font-family: noto; display: none; opacity: 0;">0</text><text x="256.0517578125" y="256.6306555310805" text-anchor="middle" dy="-4.800000000000001" style="fill: rgb(49, 49, 49); font-size: 12px; font-family: noto; display: none; opacity: 0;">0</text><text x="284.501953125" y="246.7029705975764" text-anchor="middle" dy="-4.800000000000001" style="fill: rgb(49, 49, 49); font-size: 12px; font-family: noto; display: none; opacity: 0;">2</text><text x="312.9521484375" y="226.84760073056825" text-anchor="middle" dy="-4.800000000000001" style="fill: rgb(49, 49, 49); font-size: 12px; font-family: noto; display: none; opacity: 0;">6</text><text x="341.40234375" y="246.7029705975764" text-anchor="middle" dy="-4.800000000000001" style="fill: rgb(49, 49, 49); font-size: 12px; font-family: noto; display: none; opacity: 0;">2</text><text x="369.8525390625" y="256.6306555310805" text-anchor="middle" dy="-4.800000000000001" style="fill: rgb(49, 49, 49); font-size: 12px; font-family: noto; display: none; opacity: 0;">0</text><text x="398.302734375" y="256.6306555310805" text-anchor="middle" dy="-4.800000000000001" style="fill: rgb(49, 49, 49); font-size: 12px; font-family: noto; display: none; opacity: 0;">0</text><text x="426.7529296875" y="256.6306555310805" text-anchor="middle" dy="-4.800000000000001" style="fill: rgb(49, 49, 49); font-size: 12px; font-family: noto; display: none; opacity: 0;">0</text></g><g class="ranking-text-group"><text x="0" y="157.35380619603967" text-anchor="middle" dy="-4.800000000000001" style="fill: rgb(49, 49, 49); font-size: 12px; font-family: noto; display: none; opacity: 0;">20</text><text x="28.4501953125" y="236.77528566407233" text-anchor="middle" dy="-4.800000000000001" style="fill: rgb(49, 49, 49); font-size: 12px; font-family: noto; display: none; opacity: 0;">4</text><text x="56.900390625" y="246.7029705975764" text-anchor="middle" dy="-4.800000000000001" style="fill: rgb(49, 49, 49); font-size: 12px; font-family: noto; display: none; opacity: 0;">2</text><text x="85.3505859375" y="246.7029705975764" text-anchor="middle" dy="-4.800000000000001" style="fill: rgb(49, 49, 49); font-size: 12px; font-family: noto; display: none; opacity: 0;">2</text><text x="113.80078125" y="241.73912813082438" text-anchor="middle" dy="-4.800000000000001" style="fill: rgb(49, 49, 49); font-size: 12px; font-family: noto; display: none; opacity: 0;">3</text><text x="142.2509765625" y="256.6306555310805" text-anchor="middle" dy="-4.800000000000001" style="fill: rgb(49, 49, 49); font-size: 12px; font-family: noto; display: none; opacity: 0;">0</text><text x="170.701171875" y="256.6306555310805" text-anchor="middle" dy="-4.800000000000001" style="fill: rgb(49, 49, 49); font-size: 12px; font-family: noto; display: none; opacity: 0;">0</text><text x="199.1513671875" y="202.02838839680805" text-anchor="middle" dy="-4.800000000000001" style="fill: rgb(49, 49, 49); font-size: 12px; font-family: noto; display: none; opacity: 0;">11</text><text x="227.6015625" y="256.6306555310805" text-anchor="middle" dy="-4.800000000000001" style="fill: rgb(49, 49, 49); font-size: 12px; font-family: noto; display: none; opacity: 0;">0</text><text x="256.0517578125" y="256.6306555310805" text-anchor="middle" dy="-4.800000000000001" style="fill: rgb(49, 49, 49); font-size: 12px; font-family: noto; display: none; opacity: 0;">0</text><text x="284.501953125" y="256.6306555310805" text-anchor="middle" dy="-4.800000000000001" style="fill: rgb(49, 49, 49); font-size: 12px; font-family: noto; display: none; opacity: 0;">0</text><text x="312.9521484375" y="202.02838839680805" text-anchor="middle" dy="-4.800000000000001" style="fill: rgb(49, 49, 49); font-size: 12px; font-family: noto; display: none; opacity: 0;">11</text><text x="341.40234375" y="246.7029705975764" text-anchor="middle" dy="-4.800000000000001" style="fill: rgb(49, 49, 49); font-size: 12px; font-family: noto; display: none; opacity: 0;">2</text><text x="369.8525390625" y="241.73912813082438" text-anchor="middle" dy="-4.800000000000001" style="fill: rgb(49, 49, 49); font-size: 12px; font-family: noto; display: none; opacity: 0;">3</text><text x="398.302734375" y="251.66681306432847" text-anchor="middle" dy="-4.800000000000001" style="fill: rgb(49, 49, 49); font-size: 12px; font-family: noto; display: none; opacity: 0;">1</text><text x="426.7529296875" y="152.38996372928767" text-anchor="middle" dy="-4.800000000000001" style="fill: rgb(49, 49, 49); font-size: 12px; font-family: noto; display: none; opacity: 1;">21</text></g></g></g></g><g class="axis-x-line" transform="translate(23.2470703125,256.6306555310805)"><g><g class="axis-group" fill="none" font-size="10" font-family="sans-serif" text-anchor="middle" style="font-size: 13px; font-family: noto;"><path class="domain" stroke="#000" d="M0.5,0V0.5H427.2529296875V0" style="stroke: rgb(161, 161, 161); display: block;"/><g class="tick" opacity="1" transform="translate(0.5,0)"><line stroke="#000" y2="6" style="stroke: rgb(161, 161, 161);"/><text fill="#000" y="9" dy="0.5em" dx="-0.5em" transform="rotate(-45)" style="fill: rgb(84, 84, 84); text-anchor: end;">Action</text></g><g class="tick" opacity="1" transform="translate(28.9501953125,0)"><line stroke="#000" y2="6" style="stroke: rgb(161, 161, 161);"/><text fill="#000" y="9" dy="0.5em" dx="-0.5em" transform="rotate(-45)" style="fill: rgb(84, 84, 84); text-anchor: end;">Sci-Fi</text></g><g class="tick" opacity="1" transform="translate(57.400390625,0)"><line stroke="#000" y2="6" style="stroke: rgb(161, 161, 161);"/><text fill="#000" y="9" dy="0.5em" dx="-0.5em" transform="rotate(-45)" style="fill: rgb(84, 84, 84); text-anchor: end;">Fantasy</text></g><g class="tick" opacity="1" transform="translate(85.8505859375,0)"><line stroke="#000" y2="6" style="stroke: rgb(161, 161, 161);"/><text fill="#000" y="9" dy="0.5em" dx="-0.5em" transform="rotate(-45)" style="fill: rgb(84, 84, 84); text-anchor: end;">Animation</text></g><g class="tick" opacity="1" transform="translate(114.30078125,0)"><line stroke="#000" y2="6" style="stroke: rgb(161, 161, 161);"/><text fill="#000" y="9" dy="0.5em" dx="-0.5em" transform="rotate(-45)" style="fill: rgb(84, 84, 84); text-anchor: end;">Comedy</text></g><g class="tick" opacity="1" transform="translate(142.7509765625,0)"><line stroke="#000" y2="6" style="stroke: rgb(161, 161, 161);"/><text fill="#000" y="9" dy="0.5em" dx="-0.5em" transform="rotate(-45)" style="fill: rgb(84, 84, 84); text-anchor: end;">Thriller</text></g><g class="tick" opacity="1" transform="translate(171.201171875,0)"><line stroke="#000" y2="6" style="stroke: rgb(161, 161, 161);"/><text fill="#000" y="9" dy="0.5em" dx="-0.5em" transform="rotate(-45)" style="fill: rgb(84, 84, 84); text-anchor: end;">Music</text></g><g class="tick" opacity="1" transform="translate(199.6513671875,0)"><line stroke="#000" y2="6" style="stroke: rgb(161, 161, 161);"/><text fill="#000" y="9" dy="0.5em" dx="-0.5em" transform="rotate(-45)" style="fill: rgb(84, 84, 84); text-anchor: end;">Adventure</text></g><g class="tick" opacity="1" transform="translate(228.1015625,0)"><line stroke="#000" y2="6" style="stroke: rgb(161, 161, 161);"/><text fill="#000" y="9" dy="0.5em" dx="-0.5em" transform="rotate(-45)" style="fill: rgb(84, 84, 84); text-anchor: end;">Horror</text></g><g class="tick" opacity="1" transform="translate(256.5517578125,0)"><line stroke="#000" y2="6" style="stroke: rgb(161, 161, 161);"/><text fill="#000" y="9" dy="0.5em" dx="-0.5em" transform="rotate(-45)" style="fill: rgb(84, 84, 84); text-anchor: end;">Romance</text></g><g class="tick" opacity="1" transform="translate(285.001953125,0)"><line stroke="#000" y2="6" style="stroke: rgb(161, 161, 161);"/><text fill="#000" y="9" dy="0.5em" dx="-0.5em" transform="rotate(-45)" style="fill: rgb(84, 84, 84); text-anchor: end;">Crime</text></g><g class="tick" opacity="1" transform="translate(313.4521484375,0)"><line stroke="#000" y2="6" style="stroke: rgb(161, 161, 161);"/><text fill="#000" y="9" dy="0.5em" dx="-0.5em" transform="rotate(-45)" style="fill: rgb(84, 84, 84); text-anchor: end;">Drama</text></g><g class="tick" opacity="1" transform="translate(341.90234375,0)"><line stroke="#000" y2="6" style="stroke: rgb(161, 161, 161);"/><text fill="#000" y="9" dy="0.5em" dx="-0.5em" transform="rotate(-45)" style="fill: rgb(84, 84, 84); text-anchor: end;">Family</text></g><g class="tick" opacity="1" transform="translate(370.3525390625,0)"><line stroke="#000" y2="6" style="stroke: rgb(161, 161, 161);"/><text fill="#000" y="9" dy="0.5em" dx="-0.5em" transform="rotate(-45)" style="fill: rgb(84, 84, 84); text-anchor: end;">Mystery</text></g><g class="tick" opacity="1" transform="translate(398.802734375,0)"><line stroke="#000" y2="6" style="stroke: rgb(161, 161, 161);"/><text fill="#000" y="9" dy="0.5em" dx="-0.5em" transform="rotate(-45)" style="fill: rgb(84, 84, 84); text-anchor: end;">Western</text></g><g class="tick" opacity="1" transform="translate(427.2529296875,0)"><line stroke="#000" y2="6" style="stroke: rgb(161, 161, 161);"/><text fill="#000" y="9" dy="0.5em" dx="-0.5em" transform="rotate(-45)" style="fill: rgb(84, 84, 84); text-anchor: end;">Not clear</text></g></g></g></g><g class="axis-y-line" transform="translate(23.2470703125,0)"><g><g class="axis-group" fill="none" font-size="10" font-family="sans-serif" text-anchor="end"><path class="domain" stroke="#000" d="M0,257.1306555310805H0.5V0.5H0" style="stroke: rgb(161, 161, 161); display: none;"/><g class="tick" opacity="1" transform="translate(0,257.1306555310805)"><line stroke="#000" x2="-6" style="stroke: rgb(161, 161, 161); display: none;"/><text fill="#000" x="-8" dy="0.32em" style="font-size: 13px; font-family: noto; fill: rgb(84, 84, 84);">0</text></g><g class="tick" opacity="1" transform="translate(0,207.49223086356008)"><line stroke="#000" x2="-6" style="stroke: rgb(161, 161, 161); display: none;"/><text fill="#000" x="-8" dy="0.32em" style="font-size: 13px; font-family: noto; fill: rgb(84, 84, 84);">10</text></g><g class="tick" opacity="1" transform="translate(0,157.85380619603967)"><line stroke="#000" x2="-6" style="stroke: rgb(161, 161, 161); display: none;"/><text fill="#000" x="-8" dy="0.32em" style="font-size: 13px; font-family: noto; fill: rgb(84, 84, 84);">20</text></g><g class="tick" opacity="1" transform="translate(0,108.21538152851929)"><line stroke="#000" x2="-6" style="stroke: rgb(161, 161, 161); display: none;"/><text fill="#000" x="-8" dy="0.32em" style="font-size: 13px; font-family: noto; fill: rgb(84, 84, 84);">30</text></g><g class="tick" opacity="1" transform="translate(0,58.57695686099888)"><line stroke="#000" x2="-6" style="stroke: rgb(161, 161, 161); display: none;"/><text fill="#000" x="-8" dy="0.32em" style="font-size: 13px; font-family: noto; fill: rgb(84, 84, 84);">40</text></g><g class="tick" opacity="1" transform="translate(0,8.938532193478494)"><line stroke="#000" x2="-6" style="stroke: rgb(161, 161, 161); display: none;"/><text fill="#000" x="-8" dy="0.32em" style="font-size: 13px; font-family: noto; fill: rgb(84, 84, 84);">50</text></g></g></g></g></g><text dy="1em" transform="translate(225,0)" style="fill: rgb(0, 0, 0); font-size: 24px; font-family: noto; font-weight: bold; text-anchor: middle; display: block;"/><g class="legend" transform="translate(0,340.671875)" style="display: block;"><g transform="translate(110.474609375,0)"><g class="legend-group"><g class="legend-item" transform="translate(0,0)" style="opacity: 1;"><circle cx="6" cy="6" r="6" class="legend-shape" style="fill: rgb(65, 80, 216);"/><text x="18" y="6" dy="0.35em" style="text-anchor: start; font-size: 13px; font-family: noto; fill: rgb(84, 84, 84);">Genre1</text></g><g class="legend-item" transform="translate(83.017578125,0)" style="opacity: 1;"><circle cx="6" cy="6" r="6" class="legend-shape" style="fill: rgb(40, 191, 126);"/><text x="18" y="6" dy="0.35em" style="text-anchor: start; font-size: 13px; font-family: noto; fill: rgb(84, 84, 84);">Genre2</text></g><g class="legend-item" transform="translate(166.03515625,0)" style="opacity: 1;"><circle cx="6" cy="6" r="6" class="legend-shape" style="fill: rgb(237, 124, 47);"/><text x="18" y="6" dy="0.35em" style="text-anchor: start; font-size: 13px; font-family: noto; fill: rgb(84, 84, 84);">Genre3</text></g></g></g></g></g></svg>